<svg xmlns="http://www.w3.org/2000/svg" xmlns:xlink="http://www.w3.org/1999/xlink" width="85" height="64" viewBox="0 0 85 64"><defs><style>.a,.c{fill:none;stroke-width:1.5px;}.a{stroke:#707070;}.b{clip-path:url(#a);}.c{stroke:#000;stroke-linecap:round;stroke-linejoin:round;}</style><clipPath id="a"><rect class="a" width="85" height="64"/></clipPath></defs><g class="b"><path class="c" d="M44,35.078c-.14.488-.237.883-.357,1.371a.871.871,0,0,0,.467,1.038,12.328,12.328,0,0,0,3.141,1.025.849.849,0,0,0,1.042-.59c.175-.444.3-.769.46-1.2.171-.488.429-.825.951-.789.551.028,2.023.037,2.6.025a1.061,1.061,0,0,1,1.083.71c.172.476.326.853.517,1.318a.87.87,0,0,0,.987.567,12.366,12.366,0,0,0,3.144-1.017.848.848,0,0,0,.5-1.089c-.119-.463-.205-.8-.335-1.243-.148-.5-.136-.92.306-1.2.481-.316,1.607-1.129,2.118-1.509a1.061,1.061,0,0,1,1.3-.062c.418.283.764.5,1.192.762a.87.87,0,0,0,1.132-.122A12.366,12.366,0,0,0,66.18,30.4a.846.846,0,0,0-.238-1.172c-.369-.3-.636-.526-1-.809-.41-.313-.649-.661-.457-1.145a15.709,15.709,0,0,0,.827-2.47,1.061,1.061,0,0,1,1.011-.811c.5-.018.911-.046,1.413-.084a.871.871,0,0,0,.844-.764,12.339,12.339,0,0,0,0-3.3.851.851,0,0,0-.883-.808c-.478-.03-.825-.052-1.286-.064-.518-.013-.919-.155-1.044-.661-.263-.9-.574-1.909-.781-2.482a1.058,1.058,0,0,1,.34-1.249c.4-.312.71-.575,1.094-.9a.872.872,0,0,0,.235-1.115,12.313,12.313,0,0,0-1.94-2.674.849.849,0,0,0-1.19-.136c-.4.257-.7.443-1.077.7-.427.294-.833.416-1.234.079-.857-.654-1.493-1.137-2.091-1.548a1.063,1.063,0,0,1-.459-1.212c.14-.486.237-.882.357-1.37a.871.871,0,0,0-.466-1.038,12.374,12.374,0,0,0-3.141-1.025.849.849,0,0,0-1.042.59c-.177.444-.3.768-.46,1.2-.173.488-.43.825-.952.789-.436-.008-1.849-.053-2.6-.025a1.06,1.06,0,0,1-1.083-.711c-.174-.475-.328-.852-.518-1.317a.871.871,0,0,0-.987-.567A12.3,12.3,0,0,0,44.23,5.319a.848.848,0,0,0-.5,1.089c.12.463.206.8.335,1.243.147.5.136.92-.307,1.2-.469.324-1.671,1.195-2.118,1.509a1.063,1.063,0,0,1-1.293.063c-.421-.284-.767-.5-1.193-.763a.871.871,0,0,0-1.132.122,12.3,12.3,0,0,0-1.946,2.671.85.85,0,0,0,.239,1.173c.37.3.636.525,1,.807.408.313.645.66.459,1.139a20.645,20.645,0,0,0-.83,2.476,1.062,1.062,0,0,1-1.01.812c-.507.017-.913.047-1.414.084a.871.871,0,0,0-.844.764,12.339,12.339,0,0,0,0,3.3.849.849,0,0,0,.883.808c.476.03.824.051,1.286.064.517.013.916.155,1.044.663.111.449.575,1.912.781,2.479a1.064,1.064,0,0,1-.341,1.25c-.4.313-.711.575-1.094.9a.871.871,0,0,0-.233,1.114,12.4,12.4,0,0,0,1.938,2.676.848.848,0,0,0,1.19.134c.4-.255.7-.442,1.079-.7.427-.294.833-.415,1.234-.081.774.585,1.371,1.038,2.091,1.549A1.063,1.063,0,0,1,44,35.078ZM42.5,15.048A10.811,10.811,0,1,1,44.573,30.2,10.823,10.823,0,0,1,42.5,15.048Z" transform="translate(6.217 0.794)"/><rect class="c" width="84.148" height="52.148" transform="translate(0.593 0.593)"/><rect class="c" width="84.148" height="5.926" transform="translate(0.593 46.815)"/><path class="c" d="M41.907,50.426V44.5h-8.3v5.926H26.5v4.741H49.019V50.426Z" transform="translate(4.907 8.241)"/></g></svg>